ply
format ascii 1.0
comment Generated from Goxel 0.15.1
element vertex 96
property float x
property float y
property float z
property float red
property float green
property float blue
element face 94
property list uchar int vertex_indices
end_header
58 50 8 0.717647 0.717647 0.717647
59 50 8 0.717647 0.717647 0.717647
59 51 8 0.717647 0.717647 0.717647
58 51 8 0.717647 0.717647 0.717647
59 50 7 0.717647 0.717647 0.717647
58 50 7 0.717647 0.717647 0.717647
58 51 7 0.717647 0.717647 0.717647
59 51 7 0.717647 0.717647 0.717647
59 52 8 0.717647 0.717647 0.717647
58 52 8 0.717647 0.717647 0.717647
58 52 7 0.717647 0.717647 0.717647
59 52 7 0.717647 0.717647 0.717647
59 53 8 0.717647 0.717647 0.717647
58 53 8 0.717647 0.717647 0.717647
58 53 7 0.717647 0.717647 0.717647
59 53 7 0.717647 0.717647 0.717647
59 54 8 0.717647 0.717647 0.717647
58 54 8 0.717647 0.717647 0.717647
58 54 7 0.717647 0.717647 0.717647
59 54 7 0.717647 0.717647 0.717647
59 55 8 0.717647 0.717647 0.717647
58 55 8 0.717647 0.717647 0.717647
58 55 7 0.717647 0.717647 0.717647
59 55 7 0.717647 0.717647 0.717647
59 56 8 0.717647 0.717647 0.717647
58 56 8 0.717647 0.717647 0.717647
58 56 7 0.717647 0.717647 0.717647
59 56 7 0.717647 0.717647 0.717647
59 57 8 0.717647 0.717647 0.717647
58 57 8 0.717647 0.717647 0.717647
59 57 7 0.717647 0.717647 0.717647
58 57 7 0.717647 0.717647 0.717647
58 56 6 0.717647 0.717647 0.717647
59 56 6 0.717647 0.717647 0.717647
59 57 6 0.717647 0.717647 0.717647
58 57 6 0.717647 0.717647 0.717647
58 56 5 0.717647 0.717647 0.717647
59 56 5 0.717647 0.717647 0.717647
59 57 5 0.717647 0.717647 0.717647
58 57 5 0.717647 0.717647 0.717647
58 56 4 0.717647 0.717647 0.717647
59 56 4 0.717647 0.717647 0.717647
59 57 4 0.717647 0.717647 0.717647
58 57 4 0.717647 0.717647 0.717647
58 56 3 0.717647 0.717647 0.717647
59 56 3 0.717647 0.717647 0.717647
59 57 3 0.717647 0.717647 0.717647
58 57 3 0.717647 0.717647 0.717647
58 56 2 0.717647 0.717647 0.717647
59 56 2 0.717647 0.717647 0.717647
59 57 2 0.717647 0.717647 0.717647
58 57 2 0.717647 0.717647 0.717647
58 56 1 0.717647 0.717647 0.717647
59 56 1 0.717647 0.717647 0.717647
59 57 1 0.717647 0.717647 0.717647
58 57 1 0.717647 0.717647 0.717647
58 56 0 0.717647 0.717647 0.717647
59 56 0 0.717647 0.717647 0.717647
59 57 0 0.717647 0.717647 0.717647
58 57 0 0.717647 0.717647 0.717647
58 50 -2 0.717647 0.717647 0.717647
59 50 -2 0.717647 0.717647 0.717647
59 51 -2 0.717647 0.717647 0.717647
58 51 -2 0.717647 0.717647 0.717647
59 50 -3 0.717647 0.717647 0.717647
58 50 -3 0.717647 0.717647 0.717647
58 51 -3 0.717647 0.717647 0.717647
59 51 -3 0.717647 0.717647 0.717647
59 52 -2 0.717647 0.717647 0.717647
58 52 -2 0.717647 0.717647 0.717647
58 52 -3 0.717647 0.717647 0.717647
59 52 -3 0.717647 0.717647 0.717647
59 53 -2 0.717647 0.717647 0.717647
58 53 -2 0.717647 0.717647 0.717647
58 53 -3 0.717647 0.717647 0.717647
59 53 -3 0.717647 0.717647 0.717647
59 54 -2 0.717647 0.717647 0.717647
58 54 -2 0.717647 0.717647 0.717647
58 54 -3 0.717647 0.717647 0.717647
59 54 -3 0.717647 0.717647 0.717647
59 55 -2 0.717647 0.717647 0.717647
58 55 -2 0.717647 0.717647 0.717647
58 55 -3 0.717647 0.717647 0.717647
59 55 -3 0.717647 0.717647 0.717647
59 56 -2 0.717647 0.717647 0.717647
58 56 -2 0.717647 0.717647 0.717647
58 56 -3 0.717647 0.717647 0.717647
59 56 -3 0.717647 0.717647 0.717647
58 56 -1 0.717647 0.717647 0.717647
59 56 -1 0.717647 0.717647 0.717647
59 57 -1 0.717647 0.717647 0.717647
58 57 -1 0.717647 0.717647 0.717647
59 57 -2 0.717647 0.717647 0.717647
58 57 -2 0.717647 0.717647 0.717647
58 57 -3 0.717647 0.717647 0.717647
59 57 -3 0.717647 0.717647 0.717647
4 0 1 2 3
4 4 5 6 7
4 0 5 4 1
4 1 4 7 2
4 0 3 6 5
4 3 2 8 9
4 7 6 10 11
4 2 7 11 8
4 3 9 10 6
4 9 8 12 13
4 11 10 14 15
4 8 11 15 12
4 9 13 14 10
4 13 12 16 17
4 15 14 18 19
4 12 15 19 16
4 13 17 18 14
4 17 16 20 21
4 19 18 22 23
4 16 19 23 20
4 17 21 22 18
4 21 20 24 25
4 23 22 26 27
4 20 23 27 24
4 21 25 26 22
4 25 24 28 29
4 28 30 31 29
4 24 27 30 28
4 25 29 31 26
4 26 32 33 27
4 30 34 35 31
4 27 33 34 30
4 26 31 35 32
4 32 36 37 33
4 34 38 39 35
4 33 37 38 34
4 32 35 39 36
4 36 40 41 37
4 38 42 43 39
4 37 41 42 38
4 36 39 43 40
4 40 44 45 41
4 42 46 47 43
4 41 45 46 42
4 40 43 47 44
4 44 48 49 45
4 46 50 51 47
4 45 49 50 46
4 44 47 51 48
4 48 52 53 49
4 50 54 55 51
4 49 53 54 50
4 48 51 55 52
4 52 56 57 53
4 54 58 59 55
4 53 57 58 54
4 52 55 59 56
4 60 61 62 63
4 64 65 66 67
4 60 65 64 61
4 61 64 67 62
4 60 63 66 65
4 63 62 68 69
4 67 66 70 71
4 62 67 71 68
4 63 69 70 66
4 69 68 72 73
4 71 70 74 75
4 68 71 75 72
4 69 73 74 70
4 73 72 76 77
4 75 74 78 79
4 72 75 79 76
4 73 77 78 74
4 77 76 80 81
4 79 78 82 83
4 76 79 83 80
4 77 81 82 78
4 81 80 84 85
4 83 82 86 87
4 80 83 87 84
4 81 85 86 82
4 56 88 89 57
4 58 90 91 59
4 57 89 90 58
4 56 59 91 88
4 88 85 84 89
4 90 92 93 91
4 89 84 92 90
4 88 91 93 85
4 87 86 94 95
4 92 95 94 93
4 84 87 95 92
4 85 93 94 86
